<?xml version="1.0" encoding="UTF-8"?>
<svg version="1.1" xmlns="http://www.w3.org/2000/svg" width="694" height="694">
<path d="M0 0 C2.45171589 3.37110935 1.83941154 7.02047492 1.5 11.0625 C0.84989932 14.3294338 -0.10267427 17.46628137 -1.10546875 20.640625 C-1.38057785 21.54770203 -1.65568695 22.45477905 -1.93913269 23.38934326 C-2.53342908 25.34421961 -3.13330403 27.29740715 -3.73822021 29.24902344 C-5.04122173 33.45401618 -6.31637227 37.66730448 -7.59338379 41.88024902 C-8.25566826 44.06434039 -8.91933725 46.24801238 -9.58435059 48.43127441 C-12.78393633 58.94587924 -15.84358158 69.49841581 -18.875 80.0625 C-19.95370774 83.81270716 -21.03349918 87.56260205 -22.11328125 91.3125 C-22.38652222 92.26195496 -22.65976318 93.21140991 -22.94128418 94.18963623 C-25.96337053 104.68466591 -29.01661234 115.17059869 -32.07052612 125.65640259 C-38.49779026 147.72541896 -44.91171838 169.79828973 -51.3125 191.875 C-51.62516438 192.95337505 -51.62516438 192.95337505 -51.9441452 194.05353546 C-59.31754776 219.48603502 -66.65541071 244.92869094 -73.9699707 270.37817383 C-78.16378349 284.96792919 -82.37815064 299.55155959 -86.6143837 314.1290493 C-86.89650522 315.09988425 -86.89650522 315.09988425 -87.18432617 316.09033203 C-87.46812449 317.06693 -87.46812449 317.06693 -87.7576561 318.06325722 C-89.95895159 325.63978902 -92.15361099 333.21824101 -94.34765625 340.796875 C-94.55479563 341.51236322 -94.76193501 342.22785145 -94.97535133 342.96502113 C-96.27727057 347.46219777 -97.5789718 351.95943748 -98.88062286 356.45669174 C-99.57625767 358.86003119 -100.27197279 361.26334738 -100.9677124 363.66665649 C-106.33304447 382.20031175 -111.69536573 400.73483294 -117.05127525 419.27121353 C-117.8479831 422.02847493 -118.64477863 424.78571097 -119.44160461 427.54293823 C-119.96945202 429.36944577 -120.49729931 431.19595334 -121.02514648 433.02246094 C-121.41457727 434.36999167 -121.41457727 434.36999167 -121.81187534 435.74474525 C-123.0728439 440.10823422 -124.33353055 444.47180422 -125.59353638 448.83557129 C-130.97951859 467.48847342 -136.38639812 486.13508737 -141.8359375 504.76953125 C-142.19950788 506.01381677 -142.19950788 506.01381677 -142.57042313 507.28323936 C-143.73437556 511.2655602 -144.90241528 515.2465823 -146.07879639 519.22525024 C-147.08883708 522.64484636 -148.07289081 526.0709847 -149.04669189 529.50106812 C-149.56561586 531.29853425 -150.08471521 533.09594975 -150.60400391 534.89331055 C-150.83478323 535.72247136 -151.06556255 536.55163218 -151.30333519 537.40591908 C-153.0306604 543.32581673 -155.07057665 548.21151078 -160.125 552.0625 C-165.12234289 553.54319419 -168.7195339 553.14877278 -173.5 551.0625 C-176.45693796 548.81488531 -179.05898146 546.38091395 -181.7109375 543.78125 C-184.38624337 541.17338881 -187.14665054 538.83267956 -190.0625 536.5 C-193.66200997 533.59584991 -197.14608418 530.61747943 -200.5625 527.5 C-203.69096172 524.65104034 -206.86278893 521.92947555 -210.1875 519.3125 C-214.50419724 515.90921048 -218.66922934 512.36006161 -222.8125 508.75 C-231.39732387 501.27083832 -240.03189643 493.86110909 -248.875 486.6875 C-253.99813067 482.52028876 -258.97594928 478.19937543 -263.95263672 473.85986328 C-267.58719203 470.69797557 -271.25511868 467.59407059 -275 464.5625 C-280.16820423 460.37834665 -285.18975278 456.03763033 -290.19921875 451.66601562 C-293.92655444 448.41459511 -297.68823248 445.21465078 -301.5 442.0625 C-305.15913939 443.72013423 -308.32340061 445.96651241 -311.5625 448.3125 C-312.16827881 448.74868652 -312.77405762 449.18487305 -313.39819336 449.63427734 C-315.43571887 451.10546843 -317.46854031 452.58294518 -319.5 454.0625 C-320.21671875 454.58424805 -320.9334375 455.10599609 -321.671875 455.64355469 C-331.7852782 463.02085798 -341.77817333 470.54426045 -351.71508789 478.15722656 C-358.1488595 483.07130827 -364.67450169 487.84010249 -371.25634766 492.55322266 C-376.61161791 496.39585344 -381.83876565 500.36853103 -387.04296875 504.4140625 C-391.22412658 507.64140532 -395.49023274 510.75264636 -399.75 513.875 C-405.88435266 518.37336298 -411.9720786 522.92247489 -418 527.5625 C-424.81920882 532.81162288 -431.7225454 537.9363917 -438.66674805 543.01879883 C-444.44872218 547.25915239 -450.12415713 551.61440052 -455.73828125 556.07421875 C-460.89148134 559.78423126 -465.05533679 561.99990556 -471.5 561.0625 C-477.11151449 556.69798873 -478.52255907 552.0931438 -479.40052223 545.21336555 C-479.5368963 544.06614682 -479.5368963 544.06614682 -479.67602539 542.89575195 C-479.83259645 541.65446691 -479.83259645 541.65446691 -479.99233055 540.38810539 C-480.22229832 538.56311488 -480.44946329 536.7377696 -480.67422295 534.91213036 C-481.31419588 529.72783659 -481.98017957 524.54687684 -482.64501953 519.36572266 C-482.78983356 518.23479156 -482.93464758 517.10386045 -483.08384991 515.93865871 C-484.94839228 501.45887181 -486.97397565 487.00138939 -488.99609375 472.54296875 C-489.19717914 471.10383491 -489.39824539 469.66469839 -489.59929276 468.22555923 C-490.73010787 460.13266751 -491.8637023 452.04016732 -492.99862921 443.9478513 C-493.72826164 438.7446213 -494.4564968 433.54119725 -495.18383789 428.33764648 C-495.28636694 427.60413873 -495.388896 426.87063097 -495.49453199 426.1148957 C-495.59692044 425.38238629 -495.6993089 424.64987688 -495.80480003 423.89517021 C-499.53844875 397.18391702 -503.28228477 370.47400496 -507.0776844 343.77144814 C-507.37940585 341.64728623 -507.68046016 339.52302944 -507.98080254 337.3986721 C-508.38753764 334.52369891 -508.79698046 331.64912521 -509.20727539 328.7746582 C-509.3836148 327.5230273 -509.3836148 327.5230273 -509.56351662 326.24611092 C-509.98080667 319.84589561 -509.98080667 319.84589561 -513.13589478 314.82029724 C-514.2009877 314.29714684 -514.2009877 314.29714684 -515.28759766 313.76342773 C-516.09501404 313.3583902 -516.90243042 312.95335266 -517.73431396 312.53604126 C-518.61863098 312.11035858 -519.502948 311.6846759 -520.4140625 311.24609375 C-521.32738342 310.79301849 -522.24070435 310.33994324 -523.18170166 309.87313843 C-526.15631335 308.4018214 -529.14031981 306.95076791 -532.125 305.5 C-534.16477304 304.49614809 -536.20399872 303.49118322 -538.24267578 302.48510742 C-549.97025131 296.7096111 -561.73640991 291.01336507 -573.5546875 285.42578125 C-578.91007159 282.88436936 -584.20557024 280.228058 -589.5 277.5625 C-596.5689283 274.00597846 -603.66518489 270.52123266 -610.8125 267.125 C-622.05597663 261.78020204 -633.24841555 256.33253788 -644.4375 250.875 C-645.31105133 250.44929718 -646.18460266 250.02359436 -647.08462524 249.58499146 C-652.10016708 247.14040156 -657.11150909 244.68749005 -662.11932373 242.22711182 C-664.48961242 241.06758154 -666.86562105 239.92048653 -669.24267578 238.77490234 C-670.70489065 238.06245774 -672.16697446 237.34974405 -673.62890625 236.63671875 C-674.29808578 236.31806351 -674.96726532 235.99940826 -675.65672302 235.6710968 C-678.92035206 234.06753677 -680.43501827 233.1599726 -682.5 230.0625 C-682.97133508 226.44893104 -682.87343107 224.65986227 -680.92602539 221.54467773 C-678.01609303 218.56739261 -675.18043615 217.45252811 -671.30859375 216.22265625 C-670.58941772 215.97977875 -669.8702417 215.73690125 -669.12927246 215.48666382 C-666.7370244 214.68343767 -664.33766098 213.90423176 -661.9375 213.125 C-660.21970108 212.55411516 -658.50234326 211.98190156 -656.78540039 211.40844727 C-652.25783365 209.90160291 -647.7235758 208.41612008 -643.18652344 206.93811035 C-640.61689135 206.10059804 -638.04845564 205.25953381 -635.48046875 204.41699219 C-626.86649489 201.59197897 -618.2458051 198.78813798 -609.62109375 195.99609375 C-596.72680981 191.82081164 -583.8495666 187.59369003 -570.97225952 183.36642456 C-564.38549479 181.20417617 -557.79833204 179.04314134 -551.2109375 176.8828125 C-550.57177839 176.67320074 -549.93261929 176.46358898 -549.27409172 176.24762535 C-537.72944383 172.46201618 -526.17906574 168.69425209 -514.625 164.9375 C-467.70555859 149.69750805 -467.70555859 149.69750805 -420.875 134.1875 C-398.54734854 126.712471 -376.16164692 119.41323949 -353.78503418 112.0864563 C-344.27997136 108.97404232 -334.77626628 105.85750919 -325.2734375 102.73828125 C-324.60632563 102.51931623 -323.93921375 102.30035122 -323.25188637 102.0747509 C-317.19038956 100.08518358 -311.12895879 98.09541513 -305.06759644 96.10543823 C-291.27093569 91.57604193 -277.47313887 87.05028947 -263.66796875 82.546875 C-237.41129187 73.97896448 -211.19107662 65.3089209 -184.99457169 56.5591774 C-163.03021322 49.22329939 -141.04301636 41.96597688 -119.01351929 34.82777405 C-105.79101479 30.53984299 -92.58362644 26.20545037 -79.375 21.875 C-78.71412762 21.65836071 -78.05325523 21.44172142 -77.37235641 21.2185173 C-57.97760862 14.8604984 -38.59257581 8.47461857 -19.24243164 1.98193359 C-18.3374292 1.67852051 -17.43242676 1.37510742 -16.5 1.0625 C-14.9078064 0.51807251 -14.9078064 0.51807251 -13.28344727 -0.03735352 C-8.72101489 -1.51281077 -4.57965038 -1.71736889 0 0 Z " fill="#7BC0FC" transform="translate(685.5,83.9375)"/>
<path d="M0 0 C4.875 1.875 4.875 1.875 6 3 C6.38431947 9.76035847 5.42218929 15.15957811 3.39453125 21.578125 C2.9818676 22.93874054 2.9818676 22.93874054 2.56086731 24.32684326 C1.96657092 26.28171961 1.36669597 28.23490715 0.76177979 30.18652344 C-0.54122173 34.39151618 -1.81637227 38.60480448 -3.09338379 42.81774902 C-3.75566826 45.00184039 -4.41933725 47.18551238 -5.08435059 49.36877441 C-8.28393633 59.88337924 -11.34358158 70.43591581 -14.375 81 C-15.45370774 84.75020716 -16.53349918 88.50010205 -17.61328125 92.25 C-17.88652222 93.19945496 -18.15976318 94.14890991 -18.44128418 95.12713623 C-21.46337053 105.62216591 -24.51661234 116.10809869 -27.57052612 126.59390259 C-33.99779026 148.66291896 -40.41171838 170.73578973 -46.8125 192.8125 C-47.12516438 193.89087505 -47.12516438 193.89087505 -47.4441452 194.99103546 C-54.81754776 220.42353502 -62.15541071 245.86619094 -69.4699707 271.31567383 C-73.66378349 285.90542919 -77.87815064 300.48905959 -82.1143837 315.0665493 C-82.39650522 316.03738425 -82.39650522 316.03738425 -82.68432617 317.02783203 C-82.87352505 317.67889734 -83.06272392 318.32996265 -83.2576561 319.00075722 C-85.45895159 326.57728902 -87.65361099 334.15574101 -89.84765625 341.734375 C-90.05479563 342.44986322 -90.26193501 343.16535145 -90.47535133 343.90252113 C-91.77727057 348.39969777 -93.0789718 352.89693748 -94.38062286 357.39419174 C-95.07625767 359.79753119 -95.77197279 362.20084738 -96.4677124 364.60415649 C-101.83304447 383.13781175 -107.19536573 401.67233294 -112.55127525 420.20871353 C-113.3479831 422.96597493 -114.14477863 425.72321097 -114.94160461 428.48043823 C-115.46945202 430.30694577 -115.99729931 432.13345334 -116.52514648 433.95996094 C-116.78476701 434.85831476 -117.04438753 435.75666859 -117.31187534 436.68224525 C-118.5728439 441.04573422 -119.83353055 445.40930422 -121.09353638 449.77307129 C-126.47951859 468.42597342 -131.88639812 487.07258737 -137.3359375 505.70703125 C-137.69950788 506.95131677 -137.69950788 506.95131677 -138.07042313 508.22073936 C-139.23437556 512.2030602 -140.40241528 516.1840823 -141.57879639 520.16275024 C-142.58883708 523.58234636 -143.57289081 527.0084847 -144.54669189 530.43856812 C-145.06561586 532.23603425 -145.58471521 534.03344975 -146.10400391 535.83081055 C-146.33478323 536.65997136 -146.56556255 537.48913218 -146.80333519 538.34341908 C-148.5306604 544.26331673 -150.57057665 549.14901078 -155.625 553 C-160.62234289 554.48069419 -164.2195339 554.08627278 -169 552 C-171.95693796 549.75238531 -174.55898146 547.31841395 -177.2109375 544.71875 C-179.88624337 542.11088881 -182.64665054 539.77017956 -185.5625 537.4375 C-189.16200997 534.53334991 -192.64608418 531.55497943 -196.0625 528.4375 C-199.19096172 525.58854034 -202.36278893 522.86697555 -205.6875 520.25 C-210.00419724 516.84671048 -214.16922934 513.29756161 -218.3125 509.6875 C-226.89732387 502.20833832 -235.53189643 494.79860909 -244.375 487.625 C-249.49813067 483.45778876 -254.47594928 479.13687543 -259.45263672 474.79736328 C-263.93318642 470.89950127 -268.49530482 467.12113616 -273.11328125 463.38671875 C-277.35958297 459.87590637 -281.4916706 456.23643073 -285.63549805 452.60571289 C-289.47445603 449.26120753 -293.35268058 446.09366981 -297.58203125 443.24609375 C-299 442 -299 442 -299.88671875 440.109375 C-301.40447969 437.23361743 -303.44271628 435.8067454 -306 433.8125 C-309.77551032 430.80880624 -313.44060995 427.75707006 -317 424.5 C-320.31989486 421.47717579 -323.69764112 418.57487839 -327.1875 415.75 C-333.62711993 410.53481485 -339.85455403 405.08668248 -346.10351562 399.64648438 C-349.07855216 397.06362568 -352.06946867 394.49946403 -355.0625 391.9375 C-355.63154053 391.45023437 -356.20058105 390.96296875 -356.78686523 390.4609375 C-358.52428535 388.97361735 -360.26208849 387.48674593 -362 386 C-363.23572891 384.94276891 -364.47140537 383.8854765 -365.70703125 382.828125 C-366.31708008 382.30613525 -366.92712891 381.78414551 -367.55566406 381.24633789 C-369.32179048 379.73309082 -371.08483118 378.21630903 -372.84765625 376.69921875 C-374.75777249 375.05698815 -376.67968154 373.43781929 -378.62109375 371.83203125 C-379.34425781 371.22746094 -380.06742187 370.62289063 -380.8125 370 C-381.71935547 369.2575 -381.71935547 369.2575 -382.64453125 368.5 C-384.25109856 366.72212724 -384.61197998 365.33819857 -385 363 C-384.21496094 362.28714844 -383.42992187 361.57429688 -382.62109375 360.83984375 C-377.51982805 356.19375791 -372.47373481 351.5363316 -367.640625 346.609375 C-365.18706937 344.20255376 -362.5717414 341.9925772 -359.96875 339.75 C-358.06976929 338.06201714 -356.27994012 336.31230266 -354.5 334.5 C-352.10946833 332.06610268 -349.64953738 329.78644441 -347.0625 327.5625 C-343.61578784 324.59394444 -340.40889141 321.45920896 -337.25 318.1875 C-335.29801266 316.28973453 -333.30483681 314.50268548 -331.25 312.71875 C-327.06455629 309.08361463 -323.02414745 305.31193655 -319 301.5 C-315.05666821 297.76461735 -311.10209789 294.06129396 -307 290.5 C-302.89823294 286.93793913 -298.94207267 283.2371203 -295 279.5 C-293.50144329 278.08448591 -292.00274196 276.66912491 -290.50390625 275.25390625 C-289.75254395 274.54379395 -289.00118164 273.83368164 -288.22705078 273.10205078 C-284.80506512 269.87213448 -281.37177145 266.65434261 -277.9375 263.4375 C-276.61457822 262.19792213 -275.29166155 260.95833879 -273.96875 259.71875 C-273.31519531 259.10644531 -272.66164063 258.49414062 -271.98828125 257.86328125 C-269.98119833 255.98238036 -267.9748589 254.10068968 -265.96875 252.21875 C-258.23129242 244.96067024 -250.48514952 237.7120528 -242.7265625 230.4765625 C-240.19872055 228.11910694 -237.67284588 225.75956934 -235.1484375 223.3984375 C-226.54578905 215.35460103 -217.89342997 207.36956953 -209.1875 199.4375 C-202.43851854 193.27538649 -195.76662192 187.03690124 -189.13793945 180.74536133 C-185.10611496 176.93144747 -181.01135262 173.2177673 -176.80175781 169.60058594 C-174.96030926 167.96474086 -173.22485811 166.25773473 -171.5 164.5 C-168.50435916 161.45702397 -165.36561242 158.64378674 -162.13671875 155.8515625 C-153.2358357 148.13854867 -144.6816535 140.04937455 -136.10546875 131.98046875 C-127.58775455 123.96844444 -119.05707389 115.9699836 -110.5 108 C-109.96101074 107.49645996 -109.42202148 106.99291992 -108.86669922 106.47412109 C-105.98534378 103.79509058 -103.06442901 101.17355019 -100.09375 98.59375 C-95.96430889 94.99675832 -91.97387762 91.26727167 -88 87.5 C-86.50144329 86.08448591 -85.00274196 84.66912491 -83.50390625 83.25390625 C-82.75254395 82.54379395 -82.00118164 81.83368164 -81.22705078 81.10205078 C-77.80506533 77.87213467 -74.37181157 74.65429951 -70.9375 71.4375 C-69.61846905 70.20184483 -68.29945865 68.96616773 -66.98046875 67.73046875 C-66.32739746 67.11864746 -65.67432617 66.50682617 -65.00146484 65.87646484 C-62.95401016 63.95688242 -60.90842667 62.03532363 -58.86328125 60.11328125 C-51.97248184 53.63971094 -45.0576369 47.1978978 -38.07421875 40.82421875 C-34.43848382 37.49576284 -30.84685833 34.12033693 -27.25 30.75 C-23.40454884 27.14675544 -19.55774697 23.56295319 -15.5625 20.125 C-8.55515306 14.01837957 -3.14673266 8.94334544 0 0 Z " fill="#FC6DCB" transform="translate(681,83)"/>
<path d="M0 0 C0.33 0.99 0.66 1.98 1 3 C-1.69930467 7.8601117 -5.29444169 11.57433178 -9.25 15.4375 C-10.11878784 16.29553223 -10.11878784 16.29553223 -11.00512695 17.17089844 C-14.58131986 20.67969136 -18.22516909 24.0774648 -22.0390625 27.328125 C-27.97970603 32.39305614 -33.72081854 37.64326011 -39.18579102 43.21679688 C-40.98118452 44.98150609 -42.83477626 46.63098478 -44.7421875 48.2734375 C-48.74973579 51.7592605 -52.63825127 55.35410105 -56.5 59 C-57.9062158 60.32295302 -59.3124668 61.64586863 -60.71875 62.96875 C-61.42902344 63.63777344 -62.13929688 64.30679688 -62.87109375 64.99609375 C-66.24237109 68.16942453 -69.62137815 71.33449314 -73 74.5 C-77.03679559 78.2834133 -81.07270734 82.06775527 -85.10546875 85.85546875 C-107.35209759 106.74481995 -107.35209759 106.74481995 -114.375 112.8125 C-117.47573087 115.49158337 -120.35236393 118.33154514 -123.22265625 121.25390625 C-125.06593574 123.06477643 -126.97822799 124.75321354 -128.9375 126.4375 C-131.74576347 128.85617779 -134.39970593 131.35899683 -137 134 C-140.06117253 137.10246002 -143.23142268 139.98106424 -146.53515625 142.8203125 C-149.91984329 145.81342719 -153.20566028 148.90810349 -156.5 152 C-161.0333702 156.25451322 -165.59796448 160.44199963 -170.3125 164.49609375 C-172.72937909 166.65002534 -174.97170802 168.96341644 -177.2421875 171.26953125 C-178.98290563 172.98317154 -180.77689298 174.5907046 -182.625 176.1875 C-192.3289787 184.57411256 -201.58152195 193.48163861 -210.9074707 202.2824707 C-215.36214745 206.47922655 -219.86555914 210.61023633 -224.43359375 214.68359375 C-229.70344384 219.44009467 -234.86316764 224.31689232 -240.04443359 229.16943359 C-243.19286914 232.11662082 -246.34664428 235.05807934 -249.5 238 C-250.75132372 239.16794557 -252.00262578 240.33591434 -253.25390625 241.50390625 C-255.74043125 243.82470607 -258.22744869 246.14497648 -260.71484375 248.46484375 C-266.49492328 253.85639752 -272.27135275 259.25170404 -278.03540039 264.66040039 C-300.72488385 285.95074914 -300.72488385 285.95074914 -308.27734375 292.4609375 C-310.66419805 294.5934105 -312.88571093 296.87400228 -315.12670898 299.15771484 C-316.93442387 300.93550925 -318.79658944 302.59737475 -320.71875 304.25 C-324.91314763 307.89746974 -328.96653336 311.67626218 -333 315.5 C-334.49725963 316.91420671 -335.99465879 318.32826572 -337.4921875 319.7421875 C-338.24338867 320.45213867 -338.99458984 321.16208984 -339.76855469 321.89355469 C-345.17517579 326.99731037 -350.60499631 332.07641764 -356.03271484 337.15771484 C-357.35901534 338.39974308 -358.68485186 339.64226695 -360.01025391 340.88525391 C-367.25926042 347.68328942 -374.5110111 354.46489316 -382 361 C-381.51575187 365.23232866 -379.23104037 366.95541633 -376.125 369.6875 C-375.63394775 370.12247803 -375.14289551 370.55745605 -374.63696289 371.00561523 C-370.41530607 374.7158008 -366.05671391 378.25564508 -361.68359375 381.78515625 C-359.05291443 383.95632827 -356.52057576 386.20241357 -354 388.5 C-350.58260628 391.61458668 -347.0947765 394.5918662 -343.5 397.5 C-339.9052235 400.4081338 -336.41739372 403.38541332 -333 406.5 C-328.80889757 410.31607443 -324.47578087 413.90421149 -320.0703125 417.46875 C-315.74639915 421.03350299 -311.52391591 424.71096812 -307.30200195 428.39550781 C-303.57418523 431.64716727 -299.81216887 434.84751732 -296 438 C-298.21680683 442.37973293 -301.00463984 444.76262586 -305 447.4375 C-306.27061232 448.31745145 -307.54008301 449.19905293 -308.80859375 450.08203125 C-309.48776855 450.55205566 -310.16694336 451.02208008 -310.86669922 451.50634766 C-314.64375803 454.15089398 -318.35247228 456.88757103 -322.0625 459.625 C-322.85841553 460.2113623 -323.65433105 460.79772461 -324.47436523 461.40185547 C-331.44694979 466.55613593 -338.33224459 471.82157538 -345.21508789 477.09472656 C-351.6488595 482.00880827 -358.17450169 486.77760249 -364.75634766 491.49072266 C-370.11161791 495.33335344 -375.33876565 499.30603103 -380.54296875 503.3515625 C-384.72412658 506.57890532 -388.99023274 509.69014636 -393.25 512.8125 C-399.38435266 517.31086298 -405.4720786 521.85997489 -411.5 526.5 C-418.31920882 531.74912288 -425.2225454 536.8738917 -432.16674805 541.95629883 C-437.94872218 546.19665239 -443.62415713 550.55190052 -449.23828125 555.01171875 C-454.39148134 558.72173126 -458.55533679 560.93740556 -465 560 C-470.61151449 555.63548873 -472.02255907 551.0306438 -472.90052223 544.15086555 C-473.0368963 543.00364682 -473.0368963 543.00364682 -473.17602539 541.83325195 C-473.33259645 540.59196691 -473.33259645 540.59196691 -473.49233055 539.32560539 C-473.72229832 537.50061488 -473.94946329 535.6752696 -474.17422295 533.84963036 C-474.81419588 528.66533659 -475.48017957 523.48437684 -476.14501953 518.30322266 C-476.28983356 517.17229156 -476.43464758 516.04136045 -476.58384991 514.87615871 C-478.44839228 500.39637181 -480.47397565 485.93888939 -482.49609375 471.48046875 C-482.69717914 470.04133491 -482.89824539 468.60219839 -483.09929276 467.16305923 C-484.23010787 459.07016751 -485.3637023 450.97766732 -486.49862921 442.8853513 C-487.22826164 437.6821213 -487.9564968 432.47869725 -488.68383789 427.27514648 C-488.78636694 426.54163873 -488.888896 425.80813097 -488.99453199 425.0523957 C-489.09692044 424.31988629 -489.1993089 423.58737688 -489.30480003 422.83267021 C-493.03844875 396.12141702 -496.78228477 369.41150496 -500.5776844 342.70894814 C-500.87940585 340.58478623 -501.18046016 338.46052944 -501.48080254 336.3361721 C-501.88753764 333.46119891 -502.29698046 330.58662521 -502.70727539 327.7121582 C-502.8836148 326.4605273 -502.8836148 326.4605273 -503.06351662 325.18361092 C-503.48080667 318.78339561 -503.48080667 318.78339561 -506.63589478 313.75779724 C-507.7009877 313.23464684 -507.7009877 313.23464684 -508.78759766 312.70092773 C-509.59501404 312.2958902 -510.40243042 311.89085266 -511.23431396 311.47354126 C-512.11863098 311.04785858 -513.002948 310.6221759 -513.9140625 310.18359375 C-514.82738342 309.73051849 -515.74070435 309.27744324 -516.68170166 308.81063843 C-519.65631335 307.3393214 -522.64031981 305.88826791 -525.625 304.4375 C-527.66477304 303.43364809 -529.70399872 302.42868322 -531.74267578 301.42260742 C-543.47025131 295.6471111 -555.23640991 289.95086507 -567.0546875 284.36328125 C-572.41007159 281.82186936 -577.70557024 279.165558 -583 276.5 C-590.0689283 272.94347846 -597.16518489 269.45873266 -604.3125 266.0625 C-615.55597663 260.71770204 -626.74841555 255.27003788 -637.9375 249.8125 C-638.81105133 249.38679718 -639.68460266 248.96109436 -640.58462524 248.52249146 C-641.44204315 248.10458344 -642.29946106 247.68667542 -643.18286133 247.25610352 C-644.0298912 246.84339706 -644.87692108 246.43069061 -645.74961853 246.00547791 C-647.42256026 245.18748285 -649.09370772 244.36580703 -650.76295471 243.54029846 C-654.74010795 241.5744964 -658.72561982 239.65971486 -662.77783203 237.85302734 C-663.52384171 237.50978928 -664.26985138 237.16655121 -665.03846741 236.81291199 C-666.43071937 236.17354868 -667.83251966 235.55441644 -669.24461365 234.9601593 C-671.10766602 234.08862305 -671.10766602 234.08862305 -674 232 C-674.92553711 228.26098633 -674.92553711 228.26098633 -675 225 C-673.9996875 225.47566406 -672.999375 225.95132813 -671.96875 226.44140625 C-648.9595289 237.36857565 -625.90505865 248.20131 -602.72363281 258.75878906 C-600.11382904 259.94812596 -597.50593268 261.14154949 -594.8984375 262.3359375 C-584.33817595 267.16414927 -573.73773711 271.8977529 -563.12167358 276.6015625 C-496.31343163 306.21131579 -496.31343163 306.21131579 -477.83520508 316.16625977 C-475.19145644 317.36732423 -473.73506142 316.86873531 -471 316 C-464.25738066 312.37662979 -458.10194118 307.67663392 -451.95605469 303.13745117 C-449.17854709 301.12910306 -446.36349073 299.2132806 -443.50390625 297.32421875 C-439.09860154 294.40076909 -434.70795294 291.45733444 -430.3359375 288.484375 C-429.77315094 288.10177017 -429.21036438 287.71916534 -428.63052368 287.32496643 C-427.47282491 286.53767274 -426.31521276 285.75025164 -425.15768433 284.96270752 C-416.60844612 279.14691315 -408.052914 273.34252869 -399.4375 267.625 C-392.97301393 263.33485879 -386.56645672 258.96691657 -380.17553711 254.56811523 C-374.76214905 250.85637302 -369.31347508 247.20025769 -363.84765625 243.56640625 C-362.76139198 242.8439975 -362.76139198 242.8439975 -361.65318298 242.10699463 C-358.01657675 239.68955355 -354.37774972 237.27553474 -350.73608398 234.86572266 C-344.80738588 230.93416762 -338.91557557 226.99144794 -333.1875 222.76953125 C-329.02758069 219.70432755 -324.76589653 216.91277713 -320.38867188 214.17041016 C-312.04594399 208.8804122 -303.93079477 203.22271223 -295.75 197.6875 C-291.99524447 195.1490692 -288.2399364 192.6114571 -284.484375 190.07421875 C-283.58000198 189.46310242 -282.67562897 188.85198608 -281.74385071 188.22235107 C-274.1834506 183.11664872 -266.59810497 178.04935474 -259 173 C-256.93728991 171.62531518 -254.87475697 170.25036447 -252.8125 168.875 C-248.9375 166.29166667 -245.0625 163.70833333 -241.1875 161.125 C-240.24471191 160.49625977 -239.30192383 159.86751953 -238.33056641 159.21972656 C-236.14524907 157.76274003 -233.95868471 156.30767967 -231.77148438 154.85351562 C-221.58421522 148.07787501 -211.44504428 141.23211892 -201.3125 134.375 C-191.22905838 127.55178651 -181.13960832 120.73961562 -171 114 C-168.59717748 112.39915542 -166.19509634 110.79719959 -163.79296875 109.1953125 C-162.53321569 108.3554499 -161.27344998 107.51560629 -160.01367188 106.67578125 C-159.38259521 106.25506348 -158.75151855 105.8343457 -158.10131836 105.40087891 C-146.16088867 97.44059245 -134.22045898 89.48030599 -122.2800293 81.52001953 C-121.65756317 81.10502701 -121.03509705 80.69003448 -120.39376831 80.26246643 C-119.13131244 79.4208597 -117.86880023 78.57933747 -116.60623169 77.73789978 C-113.57625482 75.71842993 -110.54711452 73.69773672 -107.52026367 71.67358398 C-101.20532652 67.45286274 -94.87839377 63.2519604 -88.51953125 59.09765625 C-87.89722122 58.69109299 -87.27491119 58.28452972 -86.63374329 57.86564636 C-85.35299505 57.02903987 -84.07223832 56.1924464 -82.79147339 55.35586548 C-68.03317929 45.71052703 -53.4175756 35.86949599 -38.85058594 25.93847656 C-33.59781361 22.36644742 -28.30989499 18.84851568 -23.015625 15.33837891 C-18.52656284 12.35763293 -14.04553037 9.36480627 -9.5625 6.375 C-7.7304928 5.15360976 -5.89846361 3.93225249 -4.06640625 2.7109375 C-3.28209229 2.18806152 -2.49777832 1.66518555 -1.68969727 1.12646484 C-1.13209717 0.75473145 -0.57449707 0.38299805 0 0 Z " fill="#735EF8" transform="translate(679,85)"/>
<path d="M0 0 C0.886875 0.763125 1.77375 1.52625 2.6875 2.3125 C6.13224929 5.26613042 9.59606698 8.19689096 13.0625 11.125 C19.47906136 16.5476817 25.86020062 22.01092579 32.23388672 27.48388672 C35.73494192 30.48935434 39.23888345 33.49145815 42.74316406 36.49316406 C45.70051252 39.02685208 48.65529679 41.5634265 51.60546875 44.10546875 C56.93835322 48.69606553 62.28185945 53.25761398 67.75 57.6875 C74.82024601 63.4333784 81.6614001 69.45011344 88 76 C83.49019655 80.84733552 78.3394715 84.71005315 73.0625 88.6875 C72.11955078 89.40228516 71.17660156 90.11707031 70.20507812 90.85351562 C64.66216402 95.04006387 59.07311976 99.13912561 53.38891602 103.1315918 C47.04733891 107.61546966 40.91842529 112.37900452 34.75585938 117.10400391 C29.1812066 121.36786541 23.54998654 125.5214272 17.81323242 129.56347656 C13.53116438 132.59059812 9.37403873 135.75747181 5.23535156 138.97680664 C0.46743903 142.67215209 -4.38475828 146.24664036 -9.25 149.8125 C-15.38437384 154.31083786 -21.47202627 158.86004187 -27.5 163.5 C-35.85555827 169.93039181 -44.33485053 176.18674369 -52.84765625 182.40698242 C-54.3092221 183.48873346 -55.75948726 184.58588776 -57.19921875 185.6965332 C-57.89789063 186.2349585 -58.5965625 186.77338379 -59.31640625 187.328125 C-59.93330322 187.81055664 -60.5502002 188.29298828 -61.18579102 188.79003906 C-63.99861361 190.66601118 -66.71377328 191.27703012 -70 192 C-70.66 192.33 -71.32 192.66 -72 193 C-70.70702948 186.36186268 -68.7487617 180.46991567 -66.125 174.25 C-62.97087766 166.59284044 -60.21558948 158.98778311 -58 151 C-57.34 151 -56.68 151 -56 151 C-55.90203125 150.38253906 -55.8040625 149.76507812 -55.703125 149.12890625 C-54.76518229 143.81659282 -53.39038809 139.33544175 -51.0703125 134.48046875 C-49.8017728 131.54060485 -48.90583287 128.57055944 -48 125.5 C-46.65572498 120.98261067 -45.10950846 116.79825549 -43.12109375 112.53515625 C-39.73044781 104.86780706 -37.04589166 96.85812427 -34.1640625 88.98828125 C-33.85573486 88.14765137 -33.54740723 87.30702148 -33.22973633 86.44091797 C-32.63378498 84.8143848 -32.03976206 83.18714331 -31.44799805 81.55908203 C-29.76970043 76.97137525 -27.93298663 72.48802481 -26 68 C-25.04805192 65.50413613 -24.10950804 63.0067386 -23.1875 60.5 C-21.27442449 55.33546874 -19.2853786 50.21818305 -17.1875 45.125 C-13.89298006 36.97997314 -11.06883893 28.68067764 -8.24682617 20.36181641 C-1.98975568 1.98975568 -1.98975568 1.98975568 0 0 Z " fill="#5232B4" transform="translate(295,448)"/>
<path d="M0 0 C1.0003125 0.47566406 2.000625 0.95132812 3.03125 1.44140625 C26.0404711 12.36857565 49.09494135 23.20131 72.27636719 33.75878906 C74.88617096 34.94812596 77.49406732 36.14154949 80.1015625 37.3359375 C90.66182405 42.16414927 101.26226289 46.8977529 111.87832642 51.6015625 C136.93148063 62.70524812 161.9294429 73.92451565 186.56665039 85.9284668 C191.66612275 88.41238896 196.75828559 90.83075943 202 93 C201.98259766 94.57587891 201.98259766 94.57587891 201.96484375 96.18359375 C201.95545324 97.6015607 201.94635441 99.0195296 201.9375 100.4375 C201.92912109 101.12521484 201.92074219 101.81292969 201.91210938 102.52148438 C201.89549606 106.09334793 202.02605009 109.56389233 202.47485352 113.10913086 C203.07046795 118.27788355 203.30286391 123.43564434 203.5 128.6328125 C203.54060547 129.62771698 203.58121094 130.62262146 203.62304688 131.64767456 C203.75167129 134.80667171 203.8761861 137.96581093 204 141.125 C204.16424772 145.27353814 204.3307249 149.42197641 204.5 153.5703125 C204.54088745 154.57606827 204.5817749 155.58182404 204.62390137 156.61805725 C204.85096697 162.02540586 205.14054197 167.41848534 205.53125 172.81640625 C206.14812927 181.47440317 206.31379931 190.13676615 206.5 198.8125 C206.70996901 208.53092551 206.95940063 218.24113579 207.46875 227.94921875 C207.50609253 228.70008255 207.54343506 229.45094635 207.58190918 230.2245636 C207.77252904 233.61599237 208.16956614 236.71901204 209 240 C209.21132235 242.50623841 209.37275946 244.99297567 209.4921875 247.50390625 C209.53238007 248.31034073 209.57257263 249.11677521 209.61398315 249.94764709 C210.24253426 263.33153392 210.59949896 276.72819359 210.98486328 290.12084961 C211.10171135 294.17251016 211.22587567 298.22391352 211.3516407 302.27530575 C211.44803924 305.41929147 211.53944746 308.5634078 211.62945175 311.70758247 C211.6730882 313.20314508 211.71854912 314.69865565 211.76590347 316.19410515 C211.83113253 318.26983414 211.88933954 320.34564743 211.94580078 322.42163086 C211.99790207 324.18765907 211.99790207 324.18765907 212.05105591 325.98936462 C212.00753131 328.55589789 211.76990092 330.56994624 211 333 C209.68 333 208.36 333 207 333 C203.91621799 327.40804415 202.30812911 322.85771896 201.62866211 316.5402832 C201.5271113 315.71700468 201.42556049 314.89372616 201.32093239 314.0454998 C201.09933171 312.23886022 200.88425029 310.43141186 200.67489815 308.623312 C200.07728561 303.47748924 199.42621477 298.33825017 198.78466797 293.19775391 C198.64603742 292.07609801 198.50740686 290.95444212 198.36457539 289.79879665 C196.65600244 276.05428572 194.72841674 262.34033889 192.80450106 248.62471914 C192.40098085 245.74626505 191.99872737 242.86763452 191.59647977 239.98900235 C190.56687211 232.6208234 189.53466984 225.25301024 188.50136888 217.88534844 C187.77174004 212.68211898 187.04350306 207.47869623 186.31616211 202.27514648 C186.16236853 201.17488485 186.16236853 201.17488485 186.00546801 200.0523957 C185.90307956 199.31988629 185.8006911 198.58737688 185.69519997 197.83267021 C181.96155125 171.12141702 178.21771523 144.41150496 174.4223156 117.70894814 C174.12059415 115.58478623 173.81953984 113.46052944 173.51919746 111.3361721 C173.11246236 108.46119891 172.70301954 105.58662521 172.29272461 102.7121582 C172.175165 101.8777376 172.0576054 101.04331699 171.93648338 100.18361092 C171.51919333 93.78339561 171.51919333 93.78339561 168.36410522 88.75779724 C167.65404327 88.4090303 166.94398132 88.06026337 166.21240234 87.70092773 C165.00127777 87.09337143 165.00127777 87.09337143 163.76568604 86.47354126 C162.43921051 85.83501724 162.43921051 85.83501724 161.0859375 85.18359375 C159.71595612 84.50398087 159.71595612 84.50398087 158.31829834 83.81063843 C155.34368665 82.3393214 152.35968019 80.88826791 149.375 79.4375 C147.33522696 78.43364809 145.29600128 77.42868322 143.25732422 76.42260742 C131.52974869 70.6471111 119.76359009 64.95086507 107.9453125 59.36328125 C102.58992841 56.82186936 97.29442976 54.165558 92 51.5 C84.9310717 47.94347846 77.83481511 44.45873266 70.6875 41.0625 C59.44402337 35.71770204 48.25158445 30.27003788 37.0625 24.8125 C36.18894867 24.38679718 35.31539734 23.96109436 34.41537476 23.52249146 C33.55795685 23.10458344 32.70053894 22.68667542 31.81713867 22.25610352 C30.9701088 21.84339706 30.12307892 21.43069061 29.25038147 21.00547791 C27.57743974 20.18748285 25.90629228 19.36580703 24.23704529 18.54029846 C20.25989205 16.5744964 16.27438018 14.65971486 12.22216797 12.85302734 C11.47615829 12.50978928 10.73014862 12.16655121 9.96153259 11.81291199 C8.56928063 11.17354868 7.16748034 10.55441644 5.75538635 9.9601593 C3.89233398 9.08862305 3.89233398 9.08862305 1 7 C0.07446289 3.26098633 0.07446289 3.26098633 0 0 Z " fill="#6692F8" transform="translate(4,310)"/>
<path d="M0 0 C0.66 0.33 1.32 0.66 2 1 C-87.80078125 60.8671875 -87.80078125 60.8671875 -89.92546082 62.28359985 C-91.3276207 63.2184002 -92.7297306 64.15327551 -94.13179016 65.08822632 C-97.10649414 67.07177579 -100.0818011 69.0543774 -103.05932617 71.03369141 C-112.98399953 77.63414337 -122.84839822 84.32372837 -132.71948242 91.00390625 C-143.12053487 98.04181395 -153.54195699 105.0470597 -164 112 C-166.00019741 113.33303717 -168.00020332 114.66636174 -170 116 C-171.46457642 116.97634399 -171.46457642 116.97634399 -172.95874023 117.97241211 C-175.03387237 119.35588906 -177.10890046 120.73952207 -179.18383789 122.12329102 C-185.4542677 126.30476833 -191.72618067 130.48399712 -198.00106812 134.65878296 C-201.30627001 136.85800755 -204.61080519 139.05823285 -207.9152832 141.25854492 C-209.59469465 142.37647276 -211.27438157 143.49398687 -212.9543457 144.61108398 C-222.21883184 150.77207997 -231.45413571 156.9685318 -240.61076355 163.28892517 C-245.62178489 166.74698884 -250.67154124 170.14168176 -255.75 173.5 C-264.9465265 179.6055345 -274.08502745 185.79386889 -283.2137146 192.00006104 C-290.37860695 196.87073347 -297.55381888 201.7234865 -304.77514648 206.51025391 C-310.33475476 210.20389522 -315.83010774 213.98991569 -321.33129883 217.76977539 C-327.76394532 222.17878262 -334.25095223 226.50215839 -340.75 230.8125 C-349.97594721 236.93545042 -359.09599051 243.19594988 -368.16967773 249.54199219 C-373.8950256 253.54458493 -379.65221045 257.47874183 -385.484375 261.32421875 C-389.01250602 263.67447994 -392.47853514 266.10963893 -395.94140625 268.5546875 C-400.85940229 272.00755 -400.85940229 272.00755 -404.2734375 271.82421875 C-408.19268395 270.95738332 -411.08108492 269.68845505 -414.625 267.8125 C-416.01425678 267.09110895 -417.40501954 266.37261432 -418.796875 265.65625 C-419.59416016 265.24503906 -420.39144531 264.83382813 -421.21289062 264.41015625 C-427.05557227 261.45401319 -432.97241604 258.64661586 -438.875 255.8125 C-446.94682709 251.93441766 -455.00664675 248.03822452 -463 244 C-459.18937996 242.72979332 -457.72716855 243.84868689 -454.25048828 245.5534668 C-453.50782715 245.92769775 -452.76516602 246.30192871 -452 246.6875 C-446.25912128 249.49260586 -440.58736828 252.00204359 -434.53515625 254.07421875 C-431.79639685 255.07435123 -429.19998438 256.2581688 -426.5625 257.5 C-415.71558235 262.72970347 -415.71558235 262.72970347 -404 264 C-401.11685271 262.53195461 -401.11685271 262.53195461 -398.203125 260.44921875 C-397.65707108 260.07953979 -397.11101715 259.70986084 -396.54841614 259.32897949 C-394.77504719 258.1253972 -393.01282254 256.90646321 -391.25 255.6875 C-390.02229884 254.85130365 -388.79369549 254.01643041 -387.56420898 253.18286133 C-385.13571994 251.53587736 -382.71018638 249.8846879 -380.28662109 248.23046875 C-376.24884112 245.49022526 -372.17034991 242.82108654 -368.0625 240.1875 C-367.40354736 239.7632373 -366.74459473 239.33897461 -366.06567383 238.90185547 C-364.73586077 238.04568561 -363.40570127 237.19005361 -362.07519531 236.33496094 C-350.65207139 228.98653251 -339.29173022 221.54881909 -328 214 C-319.12072301 208.06406366 -310.19883733 202.20079632 -301.234375 196.39453125 C-292.49603057 190.73408562 -283.79088427 185.02262246 -275.07881165 179.3218689 C-271.08407799 176.70823597 -267.08733105 174.0977001 -263.08984375 171.48828125 C-260.83062067 170.01318693 -258.57153005 168.53788991 -256.3125 167.0625 C-255.219375 166.34860107 -254.12625 165.63470215 -253 164.89916992 C-247.26960455 161.15240662 -241.55752983 157.38140032 -235.875 153.5625 C-230.31644658 149.82795654 -224.66131172 146.26862234 -218.96923828 142.74169922 C-213.87033171 139.57170814 -208.86511385 136.28039079 -203.88183594 132.93237305 C-199.03424076 129.67899083 -194.15035834 126.4857703 -189.25 123.3125 C-178.93119187 116.6258135 -168.65908984 109.86869911 -158.38647461 103.11138916 C-148.09545628 96.34240862 -137.79111939 89.59495009 -127.46704102 82.87646484 C-122.33217345 79.53153036 -117.21679207 76.16011793 -112.125 72.75 C-100.99156378 65.29664718 -89.71736224 58.06812592 -78.375 50.9375 C-71.89378032 46.86278423 -65.48382416 42.69973108 -59.12915039 38.43066406 C-54.84725363 35.55560177 -50.52006728 32.76636062 -46.16015625 30.01171875 C-42.00625713 27.36739484 -37.87817295 24.68425236 -33.75 22 C-32.91138428 21.45609619 -32.07276855 20.91219238 -31.20874023 20.35180664 C-26.3421779 17.19123647 -21.49479455 14.0041651 -16.6640625 10.7890625 C-15.61637695 10.09554687 -14.56869141 9.40203125 -13.48925781 8.6875 C-11.43477398 7.32686348 -9.38452936 5.95980132 -7.33886719 4.5859375 C-5.94522949 3.66554687 -5.94522949 3.66554687 -4.5234375 2.7265625 C-3.69763184 2.17564941 -2.87182617 1.62473633 -2.02099609 1.05712891 C-1.35406738 0.70827637 -0.68713867 0.35942383 0 0 Z " fill="#B2CCFC" transform="translate(608,131)"/>
<path d="M0 0 C4.87418139 0.43166182 7.62147582 2.85056941 11.125 6 C12.28442816 7.01255306 13.44459526 8.02426057 14.60546875 9.03515625 C15.17958496 9.53934082 15.75370117 10.04352539 16.34521484 10.56298828 C18.66461254 12.57714804 21.0475822 14.50786267 23.4375 16.4375 C28.30208624 20.39572956 33.06062178 24.46649061 37.81054688 28.56054688 C41.31216351 31.57231987 44.84777593 34.53051691 48.4375 37.4375 C53.54227843 41.57996379 58.49622682 45.88119099 63.45068359 50.20068359 C67.96234733 54.12501658 72.55334506 57.93434037 77.19921875 61.69921875 C81.6799762 65.38006413 86.06159186 69.17513193 90.45703125 72.95703125 C95.40558716 77.21351925 100.3947854 81.42167006 105.38232422 85.63232422 C107.02908979 87.02459417 108.67310067 88.42005473 110.31640625 89.81640625 C115.40228673 94.13498801 120.50282136 98.42475401 125.6875 102.625 C129.16081776 105.44769628 132.51658079 108.34747812 135.8125 111.375 C140.4408489 115.60153083 145.30288433 119.46285614 150.2668457 123.28271484 C154.73993976 126.73463241 154.73993976 126.73463241 156.72265625 128.7578125 C158.09612179 130.27353554 158.09612179 130.27353554 161 131 C162 132.33333333 163 133.66666667 164 135 C164.99 135.33 165.98 135.66 167 136 C168.34634508 137.65617345 169.67791799 139.32439423 171 141 C172.66987221 142.46180506 174.38114966 143.87728982 176.125 145.25 C180.8236912 149.01397159 185.31722497 152.93841695 189.7734375 156.984375 C194.86226822 161.82770836 194.86226822 161.82770836 201 165 C202.14667862 166.41648536 203.29204663 167.83405835 204.4296875 169.2578125 C207.51918448 172.68546338 211.27818818 175.30092997 215 178 C215.78246094 178.57492187 216.56492187 179.14984375 217.37109375 179.7421875 C221.53902546 182.6801225 224.75012909 184.73077585 230 185 C229.67 185.99 229.34 186.98 229 188 C224.62520788 189.20306783 221.40244312 189.0235531 217.19140625 187.265625 C213.55745054 185.16686983 210.67294399 182.33442478 207.63671875 179.4609375 C205.01109522 177.01035554 202.29855805 174.74989857 199.5 172.5 C195.88153042 169.57367087 192.37530316 166.57402464 188.9375 163.4375 C185.80903828 160.58854034 182.63721107 157.86697555 179.3125 155.25 C174.99580276 151.84671048 170.83077066 148.29756161 166.6875 144.6875 C158.10267613 137.20833832 149.46810357 129.79860909 140.625 122.625 C135.50186933 118.45778876 130.52405072 114.13687543 125.54736328 109.79736328 C121.06681358 105.89950127 116.50469518 102.12113616 111.88671875 98.38671875 C107.64041703 94.87590637 103.5083294 91.23643073 99.36450195 87.60571289 C95.52554397 84.26120753 91.64731942 81.09366981 87.41796875 78.24609375 C86 77 86 77 85.11328125 75.109375 C83.59552031 72.23361743 81.55728372 70.8067454 79 68.8125 C75.22448968 65.80880624 71.55939005 62.75707006 68 59.5 C64.68010514 56.47717579 61.30235888 53.57487839 57.8125 50.75 C51.37288007 45.53481485 45.14544597 40.08668248 38.89648438 34.64648438 C35.92144784 32.06362568 32.93053133 29.49946403 29.9375 26.9375 C29.08393921 26.20660156 29.08393921 26.20660156 28.21313477 25.4609375 C26.47571465 23.97361735 24.73791151 22.48674593 23 21 C18.83799252 17.43918363 14.67755577 13.8765796 10.52294922 10.30712891 C9.14347322 9.12314133 7.76134215 7.94224896 6.37890625 6.76171875 C5.65574219 6.13910156 4.93257813 5.51648438 4.1875 4.875 C3.28064453 4.09769531 3.28064453 4.09769531 2.35546875 3.3046875 C1 2 1 2 0 0 Z " fill="#E44DB8" transform="translate(296,448)"/>
<path d="M0 0 C4.87418139 0.43166182 7.62147582 2.85056941 11.125 6 C12.28442816 7.01255306 13.44459526 8.02426057 14.60546875 9.03515625 C15.17958496 9.53934082 15.75370117 10.04352539 16.34521484 10.56298828 C18.66461254 12.57714804 21.0475822 14.50786267 23.4375 16.4375 C28.30208624 20.39572956 33.06062178 24.46649061 37.81054688 28.56054688 C41.31216351 31.57231987 44.84777593 34.53051691 48.4375 37.4375 C52.87239942 41.03636536 57.19557179 44.74743538 61.5 48.5 C67.57059156 53.78994535 73.73819277 58.93706602 80 64 C82.06461398 65.68492996 84.1259256 67.37384734 86.1875 69.0625 C87.10917969 69.81660156 88.03085937 70.57070313 88.98046875 71.34765625 C89.64691406 71.89292969 90.31335938 72.43820312 91 73 C90.01 73.66 89.02 74.32 88 75 C79.4168445 71.18748209 72.38087431 63.48886515 65.51171875 57.234375 C62.99848768 54.99865467 60.42688521 52.86622318 57.8125 50.75 C51.37288007 45.53481485 45.14544597 40.08668248 38.89648438 34.64648438 C35.92144784 32.06362568 32.93053133 29.49946403 29.9375 26.9375 C29.08393921 26.20660156 29.08393921 26.20660156 28.21313477 25.4609375 C26.47571465 23.97361735 24.73791151 22.48674593 23 21 C18.83799252 17.43918363 14.67755577 13.8765796 10.52294922 10.30712891 C9.14347322 9.12314133 7.76134215 7.94224896 6.37890625 6.76171875 C5.65574219 6.13910156 4.93257813 5.51648438 4.1875 4.875 C3.28064453 4.09769531 3.28064453 4.09769531 2.35546875 3.3046875 C1 2 1 2 0 0 Z " fill="#DC41B5" transform="translate(296,448)"/>
<path d="M0 0 C0.66 0.33 1.32 0.66 2 1 C-2.81638075 5.91672201 -7.68086438 10.69747692 -12.8984375 15.1875 C-18.90310863 20.36624982 -24.7397379 25.67634202 -30.30078125 31.328125 C-32.7058642 33.69450547 -35.24650497 35.88684319 -37.80078125 38.08984375 C-41.91970352 41.66738014 -45.95239224 45.34222332 -50 49 C-50.66 48.34 -51.32 47.68 -52 47 C-50.33163072 42.68742281 -47.1672981 39.86641709 -43.9375 36.6875 C-43.35693848 36.11008057 -42.77637695 35.53266113 -42.17822266 34.93774414 C-38.27988275 31.11315079 -34.26167793 27.63519355 -29.8046875 24.46484375 C-27.90785374 23.05705211 -27.90785374 23.05705211 -26.5703125 21.00390625 C-24.67038455 18.57937133 -22.6557659 17.53586462 -20 16 C-18.47032238 14.70082174 -16.96992943 13.36641328 -15.5 12 C-11.36665434 8.15773502 -7.07272059 5.44242102 -2 3 C-2 2.34 -2 1.68 -2 1 C-1.34 0.67 -0.68 0.34 0 0 Z " fill="#6C4EE9" transform="translate(670,97)"/>
<path d="M0 0 C4.44172097 0.63332523 8.14018774 2.35447644 12.125 4.3125 C17.55531586 6.92160486 22.98083193 9.18291494 28.6796875 11.15625 C31.59965133 12.21805503 34.269569 13.52409135 37 15 C37 15.99 37 16.98 37 18 C31.29778994 16.31010662 26.08889297 13.76581318 20.75 11.1875 C19.85925781 10.76146484 18.96851563 10.33542969 18.05078125 9.89648438 C12.00157939 6.99479901 5.99201734 4.01783604 0 1 C0 0.67 0 0.34 0 0 Z " fill="#98C8FC" transform="translate(145,374)"/>
<path d="M0 0 C5.03985731 0.44469329 7.37634988 2.71343362 11 6 C10.67 7.32 10.34 8.64 10 10 C8.33037631 8.52417192 6.6643694 7.04425109 5 5.5625 C4.071875 4.73878906 3.14375 3.91507812 2.1875 3.06640625 C1.465625 2.38449219 0.74375 1.70257813 0 1 C0 0.67 0 0.34 0 0 Z " fill="#D344B4" transform="translate(296,448)"/>
<path d="M0 0 C-0.33 0.99 -0.66 1.98 -1 3 C-4.66305234 3.74926071 -7.42355152 4.2380014 -11 3 C-11 2.34 -11 1.68 -11 1 C-7.32589215 -0.17571451 -3.83070817 -0.07366746 0 0 Z " fill="#E960C2" transform="translate(526,633)"/>
<path d="M0 0 C0.66 0.33 1.32 0.66 2 1 C-0.97 3.97 -3.94 6.94 -7 10 C-7.33 9.01 -7.66 8.02 -8 7 C-6.71034824 5.62437146 -5.37310707 4.29233607 -4 3 C-3.34 3 -2.68 3 -2 3 C-2 2.34 -2 1.68 -2 1 C-1.34 0.67 -0.68 0.34 0 0 Z " fill="#7655E4" transform="translate(670,97)"/>
<path d="M0 0 C2.88437779 1.29299694 4.87219421 2.65941363 7 5 C4.625 5.625 4.625 5.625 2 6 C1.34 5.34 0.68 4.68 0 4 C0 2.68 0 1.36 0 0 Z " fill="#E641B0" transform="translate(380,517)"/>
<path d="M0 0 C1 3 1 3 0.0625 5.1875 C-0.4634375 6.0846875 -0.4634375 6.0846875 -1 7 C-1.66 7 -2.32 7 -3 7 C-3 6.34 -3 5.68 -3 5 C-4.32 5.33 -5.64 5.66 -7 6 C-4.74259377 3.66475218 -2.7194239 1.81294927 0 0 Z " fill="#635FF1" transform="translate(679,85)"/>
<path d="M0 0 C-0.99 1.485 -0.99 1.485 -2 3 C-4.3828125 3.29296875 -4.3828125 3.29296875 -7.125 3.1875 C-8.03507813 3.16042969 -8.94515625 3.13335937 -9.8828125 3.10546875 C-10.58148437 3.07066406 -11.28015625 3.03585938 -12 3 C-8.48214012 -0.51785988 -4.80656342 -0.10924008 0 0 Z " fill="#A6CFFD" transform="translate(681,83)"/>
<path d="M0 0 C0.66 0.66 1.32 1.32 2 2 C2.99 1.34 3.98 0.68 5 0 C7.1875 0.375 7.1875 0.375 9 1 C6.64031256 3.09749995 5.45383006 3.96905704 2.25 4.1875 C1.13625 4.0946875 1.13625 4.0946875 0 4 C0 2.68 0 1.36 0 0 Z " fill="#7D62E4" transform="translate(222,638)"/>
<path d="M0 0 C0.99 0 1.98 0 3 0 C1.63016497 3.16115776 1.0109362 3.9927092 -2 6 C-1.125 1.125 -1.125 1.125 0 0 Z " fill="#7952E0" transform="translate(639,124)"/>
</svg>
