<!DOCTYPE svg PUBLIC "-//W3C//DTD SVG 1.1//EN" "http://www.w3.org/Graphics/SVG/1.1/DTD/svg11.dtd">
<!-- Uploaded to: SVG Repo, www.svgrepo.com, Transformed by: SVG Repo Mixer Tools -->
<svg fill="#343C54" width="800px" height="800px" viewBox="-5 -5 24 24" xmlns="http://www.w3.org/2000/svg" preserveAspectRatio="xMinYMin" class="jam jam-hashtag">
<g id="SVGRepo_bgCarrier" stroke-width="0"/>
<g id="SVGRepo_tracerCarrier" stroke-linecap="round" stroke-linejoin="round"/>
<g id="SVGRepo_iconCarrier">
<path d="M6 6v2h2V6H6zm0-2h2V1a1 1 0 1 1 2 0v3h3a1 1 0 0 1 0 2h-3v2h3a1 1 0 0 1 0 2h-3v3a1 1 0 0 1-2 0v-3H6v3a1 1 0 0 1-2 0v-3H1a1 1 0 1 1 0-2h3V6H1a1 1 0 1 1 0-2h3V1a1 1 0 1 1 2 0v3z"/>
</g>
</svg>